<svg width="73" height="73" viewBox="0 0 73 73" fill="none" xmlns="http://www.w3.org/2000/svg">
<rect width="73" height="73" fill="#1E1E1E"/>
<g id="Section 1">
<path d="M-610 -1932C-610 -1933.1 -609.105 -1934 -608 -1934H1592C1593.1 -1934 1594 -1933.1 1594 -1932V2513C1594 2514.1 1593.1 2515 1592 2515H-608C-609.105 2515 -610 2514.1 -610 2513V-1932Z" fill="#404040"/>
<g id="landing-hero v5">
<rect width="1920" height="1080" transform="translate(-468 -1792)" fill="#E5E5E5"/>
<rect width="1920" height="1080" transform="translate(-468 -1792)" fill="white" fill-opacity="0.3"/>
<g id="Frame 208">
<rect width="1920" height="3999" transform="translate(-468 -1792)" fill="#E5E5E5"/>
<rect width="1920" height="3999" transform="translate(-468 -1792)" fill="white" fill-opacity="0.3"/>
<g id="Frame 236">
<g id="Frame 235">
<g id="Frame 229">
<g id="Frame 212" filter="url(#filter0_d_0_1)">
<rect x="-39.5" y="-44" width="459" height="161" rx="20" fill="white"/>
<g id="codepen">
<path id="Vector" d="M36.5 6.5L66.5 26V47L36.5 66.5L6.5 47V26L36.5 6.5Z" stroke="#25D366" stroke-width="3" stroke-linecap="round" stroke-linejoin="round"/>
<path id="Vector_2" d="M36.5 66.5V47" stroke="#25D366" stroke-width="3" stroke-linecap="round" stroke-linejoin="round"/>
<path id="Vector_3" d="M66.5 26L36.5 47L6.5 26" stroke="#25D366" stroke-width="3" stroke-linecap="round" stroke-linejoin="round"/>
<path id="Vector_4" d="M6.5 47L36.5 26L66.5 47" stroke="#25D366" stroke-width="3" stroke-linecap="round" stroke-linejoin="round"/>
<path id="Vector_5" d="M36.5 6.5V26" stroke="#25D366" stroke-width="3" stroke-linecap="round" stroke-linejoin="round"/>
</g>
</g>
</g>
</g>
</g>
</g>
</g>
<path d="M-608 -1933H1592V-1935H-608V-1933ZM1593 -1932V2513H1595V-1932H1593ZM1592 2514H-608V2516H1592V2514ZM-609 2513V-1932H-611V2513H-609ZM-608 2514C-608.552 2514 -609 2513.55 -609 2513H-611C-611 2514.66 -609.657 2516 -608 2516V2514ZM1593 2513C1593 2513.55 1592.55 2514 1592 2514V2516C1593.66 2516 1595 2514.66 1595 2513H1593ZM1592 -1933C1592.55 -1933 1593 -1932.55 1593 -1932H1595C1595 -1933.66 1593.66 -1935 1592 -1935V-1933ZM-608 -1935C-609.657 -1935 -611 -1933.66 -611 -1932H-609C-609 -1932.55 -608.552 -1933 -608 -1933V-1935Z" fill="white" fill-opacity="0.1"/>
</g>
<defs>
<filter id="filter0_d_0_1" x="-51.5" y="-54" width="483" height="185" filterUnits="userSpaceOnUse" color-interpolation-filters="sRGB">
<feFlood flood-opacity="0" result="BackgroundImageFix"/>
<feColorMatrix in="SourceAlpha" type="matrix" values="0 0 0 0 0 0 0 0 0 0 0 0 0 0 0 0 0 0 127 0" result="hardAlpha"/>
<feMorphology radius="2" operator="dilate" in="SourceAlpha" result="effect1_dropShadow_0_1"/>
<feOffset dy="2"/>
<feGaussianBlur stdDeviation="5"/>
<feComposite in2="hardAlpha" operator="out"/>
<feColorMatrix type="matrix" values="0 0 0 0 0 0 0 0 0 0 0 0 0 0 0 0 0 0 0.25 0"/>
<feBlend mode="normal" in2="BackgroundImageFix" result="effect1_dropShadow_0_1"/>
<feBlend mode="normal" in="SourceGraphic" in2="effect1_dropShadow_0_1" result="shape"/>
</filter>
</defs>
</svg>
