<svg width="44" height="44" viewBox="0 0 44 44" fill="none" xmlns="http://www.w3.org/2000/svg">
<rect width="44" height="44" fill="#1E1E1E"/>
<g id="Section 1">
<path d="M-868 -978C-868 -979.105 -867.105 -980 -866 -980H1334C1335.1 -980 1336 -979.105 1336 -978V3467C1336 3468.1 1335.1 3469 1334 3469H-866C-867.105 3469 -868 3468.1 -868 3467V-978Z" fill="#404040"/>
<g id="landing-hero v5">
<rect width="1920" height="1080" transform="translate(-726 -838)" fill="#E5E5E5"/>
<rect width="1920" height="1080" transform="translate(-726 -838)" fill="white" fill-opacity="0.3"/>
<g id="Frame 208">
<rect width="1920" height="3999" transform="translate(-726 -838)" fill="#E5E5E5"/>
<rect width="1920" height="3999" transform="translate(-726 -838)" fill="white" fill-opacity="0.3"/>
<g id="Frame 243">
<g id="Frame 246">
<rect id="Rectangle 91" x="-726" y="22" width="1920" height="652" fill="#1A1F71"/>
<g id="Frame 258">
<rect id="Rectangle 15" x="-586" y="-36" width="1640" height="116" rx="20" fill="white"/>
<g id="Frame 257">
<g id="edit">
<path id="Vector" d="M20.166 7.33301H7.33268C6.36022 7.33301 5.42759 7.71932 4.73996 8.40695C4.05232 9.09458 3.66602 10.0272 3.66602 10.9997V36.6663C3.66602 37.6388 4.05232 38.5714 4.73996 39.2591C5.42759 39.9467 6.36022 40.333 7.33268 40.333H32.9993C33.9718 40.333 34.9044 39.9467 35.5921 39.2591C36.2797 38.5714 36.666 37.6388 36.666 36.6663V23.833" stroke="#25D366" stroke-width="3" stroke-linecap="round" stroke-linejoin="round"/>
<path id="Vector_2" d="M33.916 4.58342C34.6454 3.85408 35.6346 3.44434 36.666 3.44434C37.6975 3.44434 38.6867 3.85408 39.416 4.58342C40.1454 5.31277 40.5551 6.30197 40.5551 7.33342C40.5551 8.36487 40.1454 9.35408 39.416 10.0834L21.9993 27.5001L14.666 29.3334L16.4993 22.0001L33.916 4.58342Z" stroke="#25D366" stroke-width="3" stroke-linecap="round" stroke-linejoin="round"/>
</g>
</g>
</g>
</g>
</g>
</g>
</g>
<path d="M-866 -979H1334V-981H-866V-979ZM1335 -978V3467H1337V-978H1335ZM1334 3468H-866V3470H1334V3468ZM-867 3467V-978H-869V3467H-867ZM-866 3468C-866.552 3468 -867 3467.55 -867 3467H-869C-869 3468.66 -867.657 3470 -866 3470V3468ZM1335 3467C1335 3467.55 1334.55 3468 1334 3468V3470C1335.66 3470 1337 3468.66 1337 3467H1335ZM1334 -979C1334.55 -979 1335 -978.552 1335 -978H1337C1337 -979.657 1335.66 -981 1334 -981V-979ZM-866 -981C-867.657 -981 -869 -979.657 -869 -978H-867C-867 -978.552 -866.552 -979 -866 -979V-981Z" fill="white" fill-opacity="0.1"/>
</g>
</svg>
