<svg width="32" height="32" viewBox="0 0 32 32" fill="none" xmlns="http://www.w3.org/2000/svg">
<rect width="32" height="32" fill="#1E1E1E"/>
<g id="Section 1">
<path d="M-1815 -174C-1815 -175.105 -1814.1 -176 -1813 -176H387C388.104 -176 389 -175.105 389 -174V4271C389 4272.1 388.104 4273 387 4273H-1813C-1814.1 4273 -1815 4272.1 -1815 4271V-174Z" fill="#404040"/>
<g id="landing-hero v5">
<rect width="1920" height="1080" transform="translate(-1673 -34)" fill="#E5E5E5"/>
<rect width="1920" height="1080" transform="translate(-1673 -34)" fill="white" fill-opacity="0.3"/>
<g id="Frame 208">
<rect width="1920" height="3999" transform="translate(-1673 -34)" fill="#E5E5E5"/>
<rect width="1920" height="3999" transform="translate(-1673 -34)" fill="white" fill-opacity="0.3"/>
</g>
<g id="Top Nav">
<path id="top" d="M-1649 -34H223V33.8C223 45.1898 223 50.8847 220.748 55.2195C218.851 58.8724 215.872 61.8508 212.219 63.7483C207.885 66 202.19 66 190.8 66H-1616.8C-1628.19 66 -1633.88 66 -1638.22 63.7483C-1641.87 61.8508 -1644.85 58.8724 -1646.75 55.2195C-1649 50.8847 -1649 45.1898 -1649 33.8L-1649 -34Z" fill="#1A1F71"/>
<g id="Frame 237">
<g id="Language Select">
<rect x="-20" y="-10" width="203" height="52" rx="20" fill="#FFEBD2" fill-opacity="0.08"/>
<g id="Frame 223">
<g id="Vector">
<path d="M26.1238 23.4953H18.9459L17.7128 27.0006H14.78L20.9187 9.8352H24.1774L30.3161 27.0006H27.3568L26.1238 23.4953ZM25.3311 21.2054L22.548 13.2436L19.7385 21.2054H25.34H25.3311Z" fill="white"/>
<path d="M12.041 15.8506L15.4406 15.877V19.9019L18.0035 12.7328V7.39558H21.0156V5.22018H15.4406V13.728H10.3852C9.98886 13.499 9.56611 13.3317 9.09932 13.2348V13.182C10.0329 12.9354 10.7551 12.4862 11.2483 11.8256C11.7415 11.1475 11.9881 10.346 11.9881 9.41245C11.9881 8.08255 11.5301 7.00806 10.6054 6.2066C9.69822 5.40513 8.50924 5 7.02961 5C6.02558 5 5.12724 5.19376 4.34339 5.59009C3.55074 5.9688 2.93423 6.51485 2.49386 7.21943C2.06231 7.92402 1.85093 8.7519 1.85093 9.68547H4.24651C4.24651 8.92805 4.51073 8.32915 5.03917 7.88879C5.58522 7.43081 6.24577 7.20182 7.03842 7.20182C7.83108 7.20182 8.42116 7.43962 8.91437 7.91521C9.42519 8.37319 9.6806 8.9897 9.6806 9.76474C9.6806 10.4429 9.42519 11.0242 8.91437 11.5174C8.42116 11.993 7.72539 12.2308 6.81824 12.2308H5.8054V14.3269H6.81824C8.14814 14.3269 9.08171 14.7937 9.60134 15.7361V15.8594H9.65418C9.83914 16.2205 9.92721 16.6432 9.92721 17.1188C9.92721 17.9555 9.6718 18.6337 9.16098 19.1445C8.65015 19.6553 7.96319 19.9107 7.09126 19.9107C6.21934 19.9107 5.47953 19.6465 4.92467 19.1181C4.37862 18.572 4.1144 17.8939 4.1144 17.0748H1.68359C1.68359 18.0612 1.91258 18.9419 2.37056 19.717C2.84615 20.4744 3.5067 21.0645 4.34339 21.496C5.1977 21.9276 6.1665 22.139 7.2498 22.139C8.76465 22.139 9.98005 21.7074 10.896 20.8355C11.8208 19.9636 12.2788 18.8098 12.2788 17.383C12.2788 16.8546 12.1995 16.3526 12.0321 15.877L12.041 15.8506Z" fill="white"/>
</g>
</g>
</g>
</g>
</g>
</g>
<path d="M-1813 -175H387V-177H-1813V-175ZM388 -174V4271H390V-174H388ZM387 4272H-1813V4274H387V4272ZM-1814 4271V-174H-1816V4271H-1814ZM-1813 4272C-1813.55 4272 -1814 4271.55 -1814 4271H-1816C-1816 4272.66 -1814.66 4274 -1813 4274V4272ZM388 4271C388 4271.55 387.552 4272 387 4272V4274C388.657 4274 390 4272.66 390 4271H388ZM387 -175C387.552 -175 388 -174.552 388 -174H390C390 -175.657 388.657 -177 387 -177V-175ZM-1813 -177C-1814.66 -177 -1816 -175.657 -1816 -174H-1814C-1814 -174.552 -1813.55 -175 -1813 -175V-177Z" fill="white" fill-opacity="0.1"/>
</g>
</svg>
