<svg width="44" height="44" viewBox="0 0 44 44" fill="none" xmlns="http://www.w3.org/2000/svg">
<rect width="44" height="44" fill="#1E1E1E"/>
<g id="Section 1">
<path d="M-1426 -978C-1426 -979.105 -1425.1 -980 -1424 -980H776C777.104 -980 778 -979.105 778 -978V3467C778 3468.1 777.104 3469 776 3469H-1424C-1425.1 3469 -1426 3468.1 -1426 3467V-978Z" fill="#404040"/>
<g id="landing-hero v5">
<rect width="1920" height="1080" transform="translate(-1284 -838)" fill="#E5E5E5"/>
<rect width="1920" height="1080" transform="translate(-1284 -838)" fill="white" fill-opacity="0.3"/>
<g id="Frame 208">
<rect width="1920" height="3999" transform="translate(-1284 -838)" fill="#E5E5E5"/>
<rect width="1920" height="3999" transform="translate(-1284 -838)" fill="white" fill-opacity="0.3"/>
<g id="Frame 243">
<g id="Frame 246">
<rect id="Rectangle 91" x="-1284" y="22" width="1920" height="652" fill="#1A1F71"/>
<g id="Frame 258">
<rect id="Rectangle 15" x="-1144" y="-36" width="1640" height="116" rx="20" fill="white"/>
<g id="Frame 255">
<g id="radio">
<path id="Vector" d="M22.0007 25.6663C24.0257 25.6663 25.6673 24.0247 25.6673 21.9997C25.6673 19.9746 24.0257 18.333 22.0007 18.333C19.9756 18.333 18.334 19.9746 18.334 21.9997C18.334 24.0247 19.9756 25.6663 22.0007 25.6663Z" stroke="#25D366" stroke-width="3" stroke-linecap="round" stroke-linejoin="round"/>
<path id="Vector_2" d="M29.7727 14.2264C30.7954 15.248 31.6068 16.4612 32.1603 17.7966C32.7139 19.132 32.9988 20.5633 32.9988 22.0089C32.9988 23.4545 32.7139 24.8859 32.1603 26.2213C31.6068 27.5566 30.7954 28.7698 29.7727 29.7914M14.226 29.7731C13.2033 28.7515 12.3919 27.5383 11.8383 26.2029C11.2848 24.8676 10.9999 23.4362 10.9999 21.9906C10.9999 20.545 11.2848 19.1136 11.8383 17.7782C12.3919 16.4429 13.2033 15.2297 14.226 14.2081M34.961 9.03809C38.398 12.4761 40.3288 17.1384 40.3288 21.9998C40.3288 26.8611 38.398 31.5234 34.961 34.9614M9.03767 34.9614C5.6007 31.5234 3.66992 26.8611 3.66992 21.9998C3.66992 17.1384 5.6007 12.4761 9.03767 9.03809" stroke="#25D366" stroke-width="3" stroke-linecap="round" stroke-linejoin="round"/>
</g>
</g>
</g>
</g>
</g>
</g>
</g>
<path d="M-1424 -979H776V-981H-1424V-979ZM777 -978V3467H779V-978H777ZM776 3468H-1424V3470H776V3468ZM-1425 3467V-978H-1427V3467H-1425ZM-1424 3468C-1424.55 3468 -1425 3467.55 -1425 3467H-1427C-1427 3468.66 -1425.66 3470 -1424 3470V3468ZM777 3467C777 3467.55 776.552 3468 776 3468V3470C777.657 3470 779 3468.66 779 3467H777ZM776 -979C776.552 -979 777 -978.552 777 -978H779C779 -979.657 777.657 -981 776 -981V-979ZM-1424 -981C-1425.66 -981 -1427 -979.657 -1427 -978H-1425C-1425 -978.552 -1424.55 -979 -1424 -979V-981Z" fill="white" fill-opacity="0.1"/>
</g>
</svg>
