<svg width="44" height="44" viewBox="0 0 44 44" fill="none" xmlns="http://www.w3.org/2000/svg">
<rect width="44" height="44" fill="#1E1E1E"/>
<g id="Section 1">
<path d="M-310 -978C-310 -979.105 -309.105 -980 -308 -980H1892C1893.1 -980 1894 -979.105 1894 -978V3467C1894 3468.1 1893.1 3469 1892 3469H-308C-309.105 3469 -310 3468.1 -310 3467V-978Z" fill="#404040"/>
<g id="landing-hero v5">
<rect width="1920" height="1080" transform="translate(-168 -838)" fill="#E5E5E5"/>
<rect width="1920" height="1080" transform="translate(-168 -838)" fill="white" fill-opacity="0.3"/>
<g id="Frame 208">
<rect width="1920" height="3999" transform="translate(-168 -838)" fill="#E5E5E5"/>
<rect width="1920" height="3999" transform="translate(-168 -838)" fill="white" fill-opacity="0.3"/>
<g id="Frame 243">
<g id="Frame 246">
<rect id="Rectangle 91" x="-168" y="22" width="1920" height="652" fill="#1A1F71"/>
<g id="Frame 258">
<rect id="Rectangle 15" x="-28" y="-36" width="1640" height="116" rx="20" fill="white"/>
<g id="Frame 256">
<g id="target">
<path id="Vector" d="M21.9993 40.3337C32.1246 40.3337 40.3327 32.1255 40.3327 22.0003C40.3327 11.8751 32.1246 3.66699 21.9993 3.66699C11.8741 3.66699 3.66602 11.8751 3.66602 22.0003C3.66602 32.1255 11.8741 40.3337 21.9993 40.3337Z" stroke="#25D366" stroke-width="3" stroke-linecap="round" stroke-linejoin="round"/>
<path id="Vector_2" d="M22 33C28.0751 33 33 28.0751 33 22C33 15.9249 28.0751 11 22 11C15.9249 11 11 15.9249 11 22C11 28.0751 15.9249 33 22 33Z" stroke="#25D366" stroke-width="3" stroke-linecap="round" stroke-linejoin="round"/>
<path id="Vector_3" d="M22.0007 25.6663C24.0257 25.6663 25.6673 24.0247 25.6673 21.9997C25.6673 19.9746 24.0257 18.333 22.0007 18.333C19.9756 18.333 18.334 19.9746 18.334 21.9997C18.334 24.0247 19.9756 25.6663 22.0007 25.6663Z" stroke="#25D366" stroke-width="3" stroke-linecap="round" stroke-linejoin="round"/>
</g>
</g>
</g>
</g>
</g>
</g>
</g>
<path d="M-308 -979H1892V-981H-308V-979ZM1893 -978V3467H1895V-978H1893ZM1892 3468H-308V3470H1892V3468ZM-309 3467V-978H-311V3467H-309ZM-308 3468C-308.552 3468 -309 3467.55 -309 3467H-311C-311 3468.66 -309.657 3470 -308 3470V3468ZM1893 3467C1893 3467.55 1892.55 3468 1892 3468V3470C1893.66 3470 1895 3468.66 1895 3467H1893ZM1892 -979C1892.55 -979 1893 -978.552 1893 -978H1895C1895 -979.657 1893.66 -981 1892 -981V-979ZM-308 -981C-309.657 -981 -311 -979.657 -311 -978H-309C-309 -978.552 -308.552 -979 -308 -979V-981Z" fill="white" fill-opacity="0.1"/>
</g>
</svg>
